<svg xmlns="http://www.w3.org/2000/svg" width="192" height="192" viewBox="0 0 192 192" fill="none">
  <g clip-path="url(#clip0_91_665)">
    <rect width="192" height="192" rx="50" fill="#005DE8"/>
    <g filter="url(#filter0_d_91_665)">
      <g filter="url(#filter1_b_91_665)">
        <path fill-rule="evenodd" clip-rule="evenodd" d="M139.726 142.984H52.8217H51.3156V142.946C35.5453 142.162 23 129.127 23 113.162C23 98.354 33.7927 86.0668 47.941 83.7376C47.5873 82.3078 47.3996 80.8126 47.3996 79.2736C47.3996 69.0422 55.6938 60.748 65.9252 60.748C70.342 60.748 74.3978 62.2936 77.5812 64.8736C83.5776 55.3377 94.1937 49 106.29 49C123.837 49 138.269 62.3361 140.004 79.4255C156.596 79.5816 170 93.7495 170 111.204C170 128.491 156.851 142.554 140.48 142.974V142.984H139.726Z" fill="white"/>
      </g>
    </g>
  </g>
  <defs>
    <filter id="filter0_d_91_665" x="12" y="40" width="173" height="119.984" filterUnits="userSpaceOnUse" color-interpolation-filters="sRGB">
      <feFlood flood-opacity="0" result="BackgroundImageFix"/>
      <feColorMatrix in="SourceAlpha" type="matrix" values="0 0 0 0 0 0 0 0 0 0 0 0 0 0 0 0 0 0 127 0" result="hardAlpha"/>
      <feOffset dx="2" dy="4"/>
      <feGaussianBlur stdDeviation="6.5"/>
      <feComposite in2="hardAlpha" operator="out"/>
      <feColorMatrix type="matrix" values="0 0 0 0 0 0 0 0 0 0 0 0 0 0 0 0 0 0 0.16 0"/>
      <feBlend mode="normal" in2="BackgroundImageFix" result="effect1_dropShadow_91_665"/>
      <feBlend mode="normal" in="SourceGraphic" in2="effect1_dropShadow_91_665" result="shape"/>
    </filter>
    <filter id="filter1_b_91_665" x="-37" y="-11" width="267" height="213.984" filterUnits="userSpaceOnUse" color-interpolation-filters="sRGB">
      <feFlood flood-opacity="0" result="BackgroundImageFix"/>
      <feGaussianBlur in="BackgroundImageFix" stdDeviation="30"/>
      <feComposite in2="SourceAlpha" operator="in" result="effect1_backgroundBlur_91_665"/>
      <feBlend mode="normal" in="SourceGraphic" in2="effect1_backgroundBlur_91_665" result="shape"/>
    </filter>
    <clipPath id="clip0_91_665">
      <rect width="192" height="192" rx="50" fill="white"/>
    </clipPath>
  </defs>
</svg>