<svg xmlns="http://www.w3.org/2000/svg" width="104" height="122" viewBox="0 0 104 122" fill="none">
  <path d="M43.635 122H7.99999C3.58171 122 0 118.418 0 114V8C0 3.58172 3.58172 0 8 0H43.1615C55.6291 0 66.4001 2.44238 75.4746 7.32715C84.5885 12.1722 91.6114 19.1618 96.5431 28.2959C101.514 37.3903 104 48.2917 104 61C104 73.7083 101.534 84.6296 96.6023 93.7637C91.6705 102.858 84.6871 109.848 75.6521 114.732C66.6171 119.577 55.9447 122 43.635 122ZM29.9049 93.8828H42.4513C48.4484 93.8828 53.5577 92.9098 57.7793 90.9639C62.0404 89.0179 65.2756 85.6621 67.4851 80.8965C69.734 76.1309 70.8584 69.4987 70.8584 61C70.8584 52.5013 69.7142 45.8691 67.4259 41.1035C65.177 36.3379 61.8628 32.9821 57.4834 31.0361C53.1434 29.0902 47.8171 28.1172 41.5044 28.1172H29.9049V93.8828Z" fill="#005DE8"/>
</svg>