<svg width="12" height="12" viewBox="0 0 16 16" fill="none" xmlns="http://www.w3.org/2000/svg">
<g clip-path="url(#clip0_61_99)">
<path d="M14.902 1.09847C16.3666 2.56275 16.3666 4.93709 14.902 6.40172L11.812 9.49203C11.396 9.90803 10.9069 10.2055 10.3857 10.3852C9.59158 10.6584 8.72889 10.6584 7.93473 10.3852C7.41358 10.2055 6.92445 9.90803 6.50845 9.49203C6.0928 9.07603 5.79495 8.58688 5.61527 8.06575L5.68102 8C5.61527 8.06575 6.83998 6.81722 6.83998 6.81722L8.00052 8C8.63983 8.63966 9.68036 8.63966 10.32 8L10.3858 7.93425L13.4103 4.90969C14.0496 4.27038 14.0496 3.22984 13.4103 2.59019C12.7707 1.95088 11.7301 1.95088 11.0908 2.59019L8.06627 5.61475L6.84073 6.11312L5.61523 5.61472C5.79492 5.09394 6.09242 4.60444 6.50842 4.18844L9.59873 1.09847C11.0634 -0.366156 13.4377 -0.366156 14.902 1.09847Z" fill="#A3E1FF"/>
<path d="M8.06584 5.61468C8.58662 5.79437 9.07577 6.09222 9.49177 6.50822C9.90777 6.92387 10.2056 7.41337 10.3853 7.93415L10.3196 7.9999C9.6799 8.63956 8.63937 8.63956 8.00006 7.9999C7.3604 7.36059 6.31987 7.36059 5.68055 7.9999L5.6148 8.06565L2.59024 11.0902C1.95059 11.7299 1.95059 12.7704 2.59024 13.4097C3.22955 14.0494 4.27009 14.0494 4.90974 13.4097L7.9343 10.3852C8.72846 10.6584 9.59115 10.6584 10.3853 10.3852C10.2056 10.9063 9.90777 11.3954 9.49177 11.8114L6.4018 14.9017C4.93718 16.366 2.56284 16.366 1.09821 14.9017C-0.36607 13.4371 -0.36607 11.0628 1.09821 9.59815L4.18852 6.50818C4.60452 6.09218 5.09368 5.79434 5.6148 5.61465C6.40746 5.3415 7.27321 5.3415 8.06584 5.61468Z" fill="#4AAEE2"/>
</g>
<defs>
<clipPath id="clip0_61_99">
<rect width="16" height="16" fill="white"/>
</clipPath>
</defs>
</svg>
